<svg xmlns="http://www.w3.org/2000/svg" width="1200" height="630" viewBox="0 0 1200 630" role="img" aria-labelledby="title desc">
  <title id="title">TuCitaBot.es</title>
  <desc id="desc">Bot privado para citas de Extranjería en Madrid</desc>
  <defs>
    <linearGradient id="bg" x1="0" y1="0" x2="1" y2="1">
      <stop offset="0" stop-color="#05091a"/>
      <stop offset="0.55" stop-color="#071024"/>
      <stop offset="1" stop-color="#04141f"/>
    </linearGradient>
    <linearGradient id="accent" x1="0" y1="0" x2="1" y2="0">
      <stop offset="0" stop-color="#00e0ff"/>
      <stop offset="1" stop-color="#39e6b0"/>
    </linearGradient>
  </defs>
  <rect width="1200" height="630" fill="url(#bg)"/>
  <circle cx="970" cy="130" r="260" fill="#00e0ff" opacity="0.14"/>
  <circle cx="170" cy="520" r="230" fill="#39e6b0" opacity="0.09"/>
  <g fill="none" stroke="#ffffff" stroke-opacity="0.06">
    <path d="M0 105h1200M0 210h1200M0 315h1200M0 420h1200M0 525h1200"/>
    <path d="M120 0v630M240 0v630M360 0v630M480 0v630M600 0v630M720 0v630M840 0v630M960 0v630M1080 0v630"/>
  </g>
  <rect x="78" y="70" width="1044" height="490" rx="38" fill="#08122a" opacity="0.78" stroke="#1fdef4" stroke-opacity="0.28"/>
  <rect x="118" y="113" width="78" height="78" rx="22" fill="#061832" stroke="#00e0ff" stroke-opacity="0.55"/>
  <text x="157" y="163" text-anchor="middle" font-family="Inter, Arial, sans-serif" font-size="25" font-weight="800" fill="#00e0ff">TC</text>
  <text x="220" y="148" font-family="Inter, Arial, sans-serif" font-size="27" font-weight="800" fill="#f7fbff">TuCitaBot.es</text>
  <text x="220" y="182" font-family="Inter, Arial, sans-serif" font-size="21" font-weight="600" fill="#9daac2">Servicio privado independiente</text>
  <text x="118" y="292" font-family="Inter, Arial, sans-serif" font-size="68" font-weight="800" fill="#f7fbff">Citas de Extranjería</text>
  <text x="118" y="372" font-family="Inter, Arial, sans-serif" font-size="68" font-weight="800" fill="url(#accent)">en Madrid</text>
  <text x="118" y="434" font-family="Inter, Arial, sans-serif" font-size="28" font-weight="500" fill="#c5d1e6">Bot privado para vigilar disponibilidad con autorización del titular.</text>
  <rect x="118" y="482" width="365" height="54" rx="16" fill="url(#accent)"/>
  <text x="300" y="518" text-anchor="middle" font-family="Inter, Arial, sans-serif" font-size="22" font-weight="800" fill="#03101f">Directo al bot de Telegram</text>
  <g transform="translate(850 270)">
    <rect x="-78" y="-70" width="156" height="116" rx="32" fill="#0c1833" stroke="#ffffff" stroke-opacity="0.22"/>
    <circle cx="-32" cy="-20" r="10" fill="#00e0ff"/>
    <circle cx="32" cy="-20" r="10" fill="#00e0ff"/>
    <path d="M0 -70v-30" stroke="#00e0ff" stroke-width="4"/>
    <circle cx="0" cy="-108" r="13" fill="#00e0ff"/>
    <rect x="-98" y="70" width="196" height="44" rx="22" fill="#00e0ff" fill-opacity="0.1" stroke="#00e0ff" stroke-opacity="0.32"/>
    <text x="0" y="99" text-anchor="middle" font-family="Inter, Arial, sans-serif" font-size="17" font-weight="800" fill="#00e0ff">slots.scan()</text>
  </g>
</svg>
